<svg xmlns="http://www.w3.org/2000/svg"
     xmlns:xlink="http://www.w3.org/1999/xlink"
     width="1600" height="900" viewBox="0 0 1600 900">
  <defs>
    <!-- Dorado elegante -->
    <linearGradient id="gold" x1="0" y1="0" x2="1" y2="1">
      <stop offset="0" stop-color="#F6E7B3"/>
      <stop offset="0.35" stop-color="#D9B45A"/>
      <stop offset="0.7" stop-color="#B8892E"/>
      <stop offset="1" stop-color="#F6E7B3"/>
    </linearGradient>

    <!-- Sombra suave para volumen -->
    <filter id="softShadow" x="-20%" y="-20%" width="140%" height="140%">
      <feDropShadow dx="0" dy="2" stdDeviation="3" flood-color="#000000" flood-opacity="0.12"/>
    </filter>

    <!-- Estilo de pétalos -->
    <style>
      .petal { fill: #FFFFFF; stroke: #E6E6E6; stroke-width: 2; }
      .petal2 { fill: #FFFFFF; stroke: #DCDCDC; stroke-width: 2; opacity: 0.95; }
      .center { fill: #F7F7F7; stroke: #E3E3E3; stroke-width: 2; }
      .accent { fill: none; stroke: #F0F0F0; stroke-width: 2; opacity: 0.9; }
    </style>

    <!-- Rosa estilizada -->
    <g id="rose" filter="url(#softShadow)">
      <!-- pétalos externos -->
      <ellipse class="petal" cx="0" cy="-26" rx="34" ry="26"/>
      <ellipse class="petal" cx="26" cy="-10" rx="34" ry="26" transform="rotate(25 26 -10)"/>
      <ellipse class="petal" cx="26" cy="18"  rx="34" ry="26" transform="rotate(70 26 18)"/>
      <ellipse class="petal" cx="0"  cy="30"  rx="34" ry="26" transform="rotate(110 0 30)"/>
      <ellipse class="petal" cx="-26" cy="18" rx="34" ry="26" transform="rotate(155 -26 18)"/>
      <ellipse class="petal" cx="-26" cy="-10" rx="34" ry="26" transform="rotate(200 -26 -10)"/>

      <!-- pétalos intermedios -->
      <ellipse class="petal2" cx="0" cy="-12" rx="24" ry="18"/>
      <ellipse class="petal2" cx="16" cy="0"  rx="24" ry="18" transform="rotate(40 16 0)"/>
      <ellipse class="petal2" cx="0" cy="14"  rx="24" ry="18" transform="rotate(95 0 14)"/>
      <ellipse class="petal2" cx="-16" cy="2" rx="24" ry="18" transform="rotate(150 -16 2)"/>

      <!-- centro -->
      <circle class="center" cx="0" cy="0" r="14"/>
      <path class="accent" d="M -8 -2 C -2 -10, 8 -8, 6 0 C 4 10, -6 10, -8 2"/>
    </g>
  </defs>

  <!-- Marco dorado -->
  <rect x="36" y="36" width="1528" height="828" rx="28" fill="none" stroke="url(#gold)" stroke-width="10"/>
  <rect x="58" y="58" width="1484" height="784" rx="22" fill="none" stroke="url(#gold)" stroke-width="3" opacity="0.75"/>

  <!-- Esquinas -->
  <g transform="translate(90 90) scale(1)">
    <use href="#rose" x="0" y="0"/><use xlink:href="#rose" x="0" y="0"/>
    <use href="#rose" x="78" y="24" transform="scale(0.78) rotate(18 78 24)"/>
    <use xlink:href="#rose" x="78" y="24" transform="scale(0.78) rotate(18 78 24)"/>
    <use href="#rose" x="28" y="84" transform="scale(0.70) rotate(-12 28 84)"/>
    <use xlink:href="#rose" x="28" y="84" transform="scale(0.70) rotate(-12 28 84)"/>
  </g>

  <g transform="translate(1510 90) scale(1)">
    <g transform="scale(-1 1)">
      <use href="#rose" x="0" y="0"/><use xlink:href="#rose" x="0" y="0"/>
      <use href="#rose" x="78" y="24" transform="scale(0.78) rotate(18 78 24)"/>
      <use xlink:href="#rose" x="78" y="24" transform="scale(0.78) rotate(18 78 24)"/>
      <use href="#rose" x="28" y="84" transform="scale(0.70) rotate(-12 28 84)"/>
      <use xlink:href="#rose" x="28" y="84" transform="scale(0.70) rotate(-12 28 84)"/>
    </g>
  </g>

  <g transform="translate(90 810) scale(1)">
    <g transform="scale(1 -1)">
      <use href="#rose" x="0" y="0"/><use xlink:href="#rose" x="0" y="0"/>
      <use href="#rose" x="78" y="24" transform="scale(0.78) rotate(18 78 24)"/>
      <use xlink:href="#rose" x="78" y="24" transform="scale(0.78) rotate(18 78 24)"/>
      <use href="#rose" x="28" y="84" transform="scale(0.70) rotate(-12 28 84)"/>
      <use xlink:href="#rose" x="28" y="84" transform="scale(0.70) rotate(-12 28 84)"/>
    </g>
  </g>

  <g transform="translate(1510 810) scale(1)">
    <g transform="scale(-1 -1)">
      <use href="#rose" x="0" y="0"/><use xlink:href="#rose" x="0" y="0"/>
      <use href="#rose" x="78" y="24" transform="scale(0.78) rotate(18 78 24)"/>
      <use xlink:href="#rose" x="78" y="24" transform="scale(0.78) rotate(18 78 24)"/>
      <use href="#rose" x="28" y="84" transform="scale(0.70) rotate(-12 28 84)"/>
      <use xlink:href="#rose" x="28" y="84" transform="scale(0.70) rotate(-12 28 84)"/>
    </g>
  </g>
</svg>
